<?xml version="1.0" encoding="UTF-8"?>
<svg width="700pt" height="700pt" version="1.1" viewBox="0 0 700 700" xmlns="http://www.w3.org/2000/svg" xmlns:xlink="http://www.w3.org/1999/xlink">
 <defs>
  <symbol id="h" overflow="visible">
   <path d="m18.766-1.125c-0.96875 0.5-1.9805 0.875-3.0312 1.125-1.043 0.25781-2.1367 0.39062-3.2812 0.39062-3.3984 0-6.0898-0.94531-8.0781-2.8438-1.9922-1.9062-2.9844-4.4844-2.9844-7.7344 0-3.2578 0.99219-5.8359 2.9844-7.7344 1.9883-1.9062 4.6797-2.8594 8.0781-2.8594 1.1445 0 2.2383 0.13281 3.2812 0.39062 1.0508 0.25 2.0625 0.625 3.0312 1.125v4.2188c-0.98047-0.65625-1.9453-1.1406-2.8906-1.4531-0.94922-0.3125-1.9492-0.46875-3-0.46875-1.875 0-3.3516 0.60547-4.4219 1.8125-1.0742 1.1992-1.6094 2.8555-1.6094 4.9688 0 2.1055 0.53516 3.7617 1.6094 4.9688 1.0703 1.1992 2.5469 1.7969 4.4219 1.7969 1.0508 0 2.0508-0.14844 3-0.45312 0.94531-0.3125 1.9102-0.80078 2.8906-1.4688z"/>
  </symbol>
  <symbol id="d" overflow="visible">
   <path d="m13.734-11.141c-0.4375-0.19531-0.87109-0.34375-1.2969-0.4375-0.41797-0.10156-0.83984-0.15625-1.2656-0.15625-1.2617 0-2.2305 0.40625-2.9062 1.2188-0.67969 0.80469-1.0156 1.9531-1.0156 3.4531v7.0625h-4.8906v-15.312h4.8906v2.5156c0.625-1 1.3438-1.7266 2.1562-2.1875 0.82031-0.46875 1.8008-0.70312 2.9375-0.70312 0.16406 0 0.34375 0.011719 0.53125 0.03125 0.19531 0.011719 0.47656 0.039062 0.84375 0.078125z"/>
  </symbol>
  <symbol id="a" overflow="visible">
   <path d="m17.641-7.7031v1.4062h-11.453c0.125 1.1484 0.53906 2.0078 1.25 2.5781 0.70703 0.57422 1.7031 0.85938 2.9844 0.85938 1.0312 0 2.082-0.14844 3.1562-0.45312 1.082-0.3125 2.1914-0.77344 3.3281-1.3906v3.7656c-1.1562 0.4375-2.3125 0.76562-3.4688 0.98438-1.1562 0.22656-2.3125 0.34375-3.4688 0.34375-2.7734 0-4.9297-0.70312-6.4688-2.1094-1.5312-1.4062-2.2969-3.3789-2.2969-5.9219 0-2.5 0.75391-4.4609 2.2656-5.8906 1.5078-1.4375 3.582-2.1562 6.2188-2.1562 2.4062 0 4.332 0.73047 5.7812 2.1875 1.4453 1.4492 2.1719 3.3828 2.1719 5.7969zm-5.0312-1.625c0-0.92578-0.27344-1.6719-0.8125-2.2344-0.54297-0.57031-1.25-0.85938-2.125-0.85938-0.94922 0-1.7188 0.26562-2.3125 0.79688s-0.96484 1.2969-1.1094 2.2969z"/>
  </symbol>
  <symbol id="c" overflow="visible">
   <path d="m9.2188-6.8906c-1.0234 0-1.793 0.17188-2.3125 0.51562-0.51172 0.34375-0.76562 0.85547-0.76562 1.5312 0 0.625 0.20703 1.1172 0.625 1.4688 0.41406 0.34375 0.98828 0.51562 1.7188 0.51562 0.92578 0 1.7031-0.32812 2.3281-0.98438 0.63281-0.66406 0.95312-1.4922 0.95312-2.4844v-0.5625zm7.4688-1.8438v8.7344h-4.9219v-2.2656c-0.65625 0.92969-1.3984 1.6055-2.2188 2.0312-0.82422 0.41406-1.8242 0.625-3 0.625-1.5859 0-2.8711-0.45703-3.8594-1.375-0.99219-0.92578-1.4844-2.1289-1.4844-3.6094 0-1.7891 0.61328-3.1016 1.8438-3.9375 1.2383-0.84375 3.1797-1.2656 5.8281-1.2656h2.8906v-0.39062c0-0.76953-0.30859-1.332-0.92188-1.6875-0.61719-0.36328-1.5703-0.54688-2.8594-0.54688-1.0547 0-2.0312 0.10547-2.9375 0.3125-0.89844 0.21094-1.7305 0.52344-2.5 0.9375v-3.7344c1.0391-0.25 2.0859-0.44141 3.1406-0.57812 1.0625-0.13281 2.125-0.20312 3.1875-0.20312 2.7578 0 4.75 0.54688 5.9688 1.6406 1.2266 1.0859 1.8438 2.8555 1.8438 5.3125z"/>
  </symbol>
  <symbol id="b" overflow="visible">
   <path d="m7.7031-19.656v4.3438h5.0469v3.5h-5.0469v6.5c0 0.71094 0.14062 1.1875 0.42188 1.4375s0.83594 0.375 1.6719 0.375h2.5156v3.5h-4.1875c-1.9375 0-3.3125-0.39844-4.125-1.2031-0.80469-0.8125-1.2031-2.1797-1.2031-4.1094v-6.5h-2.4219v-3.5h2.4219v-4.3438z"/>
  </symbol>
  <symbol id="k" overflow="visible">
   <path d="m12.766-13.078v-8.2031h4.9219v21.281h-4.9219v-2.2188c-0.66797 0.90625-1.4062 1.5703-2.2188 1.9844s-1.7578 0.625-2.8281 0.625c-1.8867 0-3.4336-0.75-4.6406-2.25-1.2109-1.5-1.8125-3.4258-1.8125-5.7812 0-2.3633 0.60156-4.2969 1.8125-5.7969 1.207-1.5 2.7539-2.25 4.6406-2.25 1.0625 0 2 0.21484 2.8125 0.64062 0.82031 0.42969 1.5664 1.0859 2.2344 1.9688zm-3.2188 9.9219c1.0391 0 1.8359-0.37891 2.3906-1.1406 0.55078-0.76953 0.82812-1.8828 0.82812-3.3438 0-1.457-0.27734-2.5664-0.82812-3.3281-0.55469-0.76953-1.3516-1.1562-2.3906-1.1562-1.043 0-1.8398 0.38672-2.3906 1.1562-0.55469 0.76172-0.82812 1.8711-0.82812 3.3281 0 1.4609 0.27344 2.5742 0.82812 3.3438 0.55078 0.76172 1.3477 1.1406 2.3906 1.1406z"/>
  </symbol>
  <symbol id="j" overflow="visible">
   <path d="m10.5-3.1562c1.0508 0 1.8516-0.37891 2.4062-1.1406 0.55078-0.76953 0.82812-1.8828 0.82812-3.3438 0-1.457-0.27734-2.5664-0.82812-3.3281-0.55469-0.76953-1.3555-1.1562-2.4062-1.1562-1.0547 0-1.8594 0.38672-2.4219 1.1562-0.55469 0.77344-0.82812 1.8828-0.82812 3.3281 0 1.4492 0.27344 2.5586 0.82812 3.3281 0.5625 0.77344 1.3672 1.1562 2.4219 1.1562zm-3.25-9.9219c0.67578-0.88281 1.4219-1.5391 2.2344-1.9688 0.82031-0.42578 1.7656-0.64062 2.8281-0.64062 1.8945 0 3.4453 0.75 4.6562 2.25 1.207 1.5 1.8125 3.4336 1.8125 5.7969 0 2.3555-0.60547 4.2812-1.8125 5.7812-1.2109 1.5-2.7617 2.25-4.6562 2.25-1.0625 0-2.0078-0.21094-2.8281-0.625-0.8125-0.42578-1.5586-1.0859-2.2344-1.9844v2.2188h-4.8906v-21.281h4.8906z"/>
  </symbol>
  <symbol id="i" overflow="visible">
   <path d="m0.34375-15.312h4.8906l4.125 10.391 3.5-10.391h4.8906l-6.4375 16.766c-0.64844 1.6953-1.4023 2.8828-2.2656 3.5625-0.86719 0.6875-2 1.0312-3.4062 1.0312h-2.8438v-3.2188h1.5312c0.83203 0 1.4375-0.13672 1.8125-0.40625 0.38281-0.26172 0.67969-0.73047 0.89062-1.4062l0.14062-0.42188z"/>
  </symbol>
  <symbol id="f" overflow="visible">
   <path d="m2.3594-15.312h4.8906v15.312h-4.8906zm0-5.9688h4.8906v4h-4.8906z"/>
  </symbol>
  <symbol id="u" overflow="visible">
   <path d="m0.42188-15.312h4.8906l3.8281 10.578 3.7969-10.578h4.9062l-6.0312 15.312h-5.375z"/>
  </symbol>
  <symbol id="t" overflow="visible">
   <path d="m2.5781-20.406h6.6875l4.6562 10.922 4.6719-10.922h6.6875v20.406h-4.9844v-14.938l-4.7031 11.016h-3.3281l-4.7031-11.016v14.938h-4.9844z"/>
  </symbol>
  <symbol id="g" overflow="visible">
   <path d="m17.75-9.3281v9.3281h-4.9219v-7.1406c0-1.3203-0.03125-2.2344-0.09375-2.7344s-0.16797-0.86719-0.3125-1.1094c-0.1875-0.3125-0.44922-0.55469-0.78125-0.73438-0.32422-0.17578-0.69531-0.26562-1.1094-0.26562-1.0234 0-1.8242 0.39844-2.4062 1.1875-0.58594 0.78125-0.875 1.8711-0.875 3.2656v7.5312h-4.8906v-15.312h4.8906v2.2344c0.73828-0.88281 1.5195-1.5391 2.3438-1.9688 0.83203-0.42578 1.75-0.64062 2.75-0.64062 1.7695 0 3.1133 0.54688 4.0312 1.6406 0.91406 1.0859 1.375 2.6562 1.375 4.7188z"/>
  </symbol>
  <symbol id="s" overflow="visible">
   <path d="m12.422-21.281v3.2188h-2.7031c-0.6875 0-1.1719 0.125-1.4531 0.375-0.27344 0.25-0.40625 0.6875-0.40625 1.3125v1.0625h4.1875v3.5h-4.1875v11.812h-4.8906v-11.812h-2.4375v-3.5h2.4375v-1.0625c0-1.6641 0.46094-2.8984 1.3906-3.7031 0.92578-0.80078 2.3672-1.2031 4.3281-1.2031z"/>
  </symbol>
  <symbol id="e" overflow="visible">
   <path d="m9.6406-12.188c-1.0859 0-1.9141 0.39062-2.4844 1.1719-0.57422 0.78125-0.85938 1.9062-0.85938 3.375s0.28516 2.5938 0.85938 3.375c0.57031 0.77344 1.3984 1.1562 2.4844 1.1562 1.0625 0 1.875-0.38281 2.4375-1.1562 0.57031-0.78125 0.85938-1.9062 0.85938-3.375s-0.28906-2.5938-0.85938-3.375c-0.5625-0.78125-1.375-1.1719-2.4375-1.1719zm0-3.5c2.6328 0 4.6914 0.71484 6.1719 2.1406 1.4766 1.418 2.2188 3.3867 2.2188 5.9062 0 2.5117-0.74219 4.4805-2.2188 5.9062-1.4805 1.418-3.5391 2.125-6.1719 2.125-2.6484 0-4.7148-0.70703-6.2031-2.125-1.4922-1.4258-2.2344-3.3945-2.2344-5.9062 0-2.5195 0.74219-4.4883 2.2344-5.9062 1.4883-1.4258 3.5547-2.1406 6.2031-2.1406z"/>
  </symbol>
  <symbol id="r" overflow="visible">
   <path d="m16.547-12.766c0.61328-0.94531 1.3477-1.6719 2.2031-2.1719 0.85156-0.5 1.7891-0.75 2.8125-0.75 1.7578 0 3.0977 0.54688 4.0156 1.6406 0.92578 1.0859 1.3906 2.6562 1.3906 4.7188v9.3281h-4.9219v-7.9844-0.35938c0.007813-0.13281 0.015625-0.32031 0.015625-0.5625 0-1.082-0.16406-1.8633-0.48438-2.3438-0.3125-0.48828-0.82422-0.73438-1.5312-0.73438-0.92969 0-1.6484 0.38672-2.1562 1.1562-0.51172 0.76172-0.77344 1.8672-0.78125 3.3125v7.5156h-4.9219v-7.9844c0-1.6953-0.14844-2.7852-0.4375-3.2656-0.29297-0.48828-0.8125-0.73438-1.5625-0.73438-0.9375 0-1.6641 0.38672-2.1719 1.1562-0.51172 0.76172-0.76562 1.8594-0.76562 3.2969v7.5312h-4.9219v-15.312h4.9219v2.2344c0.60156-0.86328 1.2891-1.5156 2.0625-1.9531 0.78125-0.4375 1.6406-0.65625 2.5781-0.65625 1.0625 0 2 0.25781 2.8125 0.76562 0.8125 0.51172 1.4258 1.2305 1.8438 2.1562z"/>
  </symbol>
  <symbol id="q" overflow="visible">
   <path d="m17.75-9.3281v9.3281h-4.9219v-7.1094c0-1.3438-0.03125-2.2656-0.09375-2.7656s-0.16797-0.86719-0.3125-1.1094c-0.1875-0.3125-0.44922-0.55469-0.78125-0.73438-0.32422-0.17578-0.69531-0.26562-1.1094-0.26562-1.0234 0-1.8242 0.39844-2.4062 1.1875-0.58594 0.78125-0.875 1.8711-0.875 3.2656v7.5312h-4.8906v-21.281h4.8906v8.2031c0.73828-0.88281 1.5195-1.5391 2.3438-1.9688 0.83203-0.42578 1.75-0.64062 2.75-0.64062 1.7695 0 3.1133 0.54688 4.0312 1.6406 0.91406 1.0859 1.375 2.6562 1.375 4.7188z"/>
  </symbol>
  <symbol id="p" overflow="visible">
   <path d="m2.5781-20.406h5.875l7.4219 14v-14h4.9844v20.406h-5.875l-7.4219-14v14h-4.9844z"/>
  </symbol>
  <symbol id="o" overflow="visible">
   <path d="m2.1875-5.9688v-9.3438h4.9219v1.5312c0 0.83594-0.007813 1.875-0.015625 3.125-0.011719 1.25-0.015625 2.0859-0.015625 2.5 0 1.2422 0.03125 2.1328 0.09375 2.6719 0.070313 0.54297 0.17969 0.93359 0.32812 1.1719 0.20703 0.32422 0.47266 0.57422 0.79688 0.75 0.32031 0.16797 0.69141 0.25 1.1094 0.25 1.0195 0 1.8203-0.39062 2.4062-1.1719 0.58203-0.78125 0.875-1.8672 0.875-3.2656v-7.5625h4.8906v15.312h-4.8906v-2.2188c-0.74219 0.89844-1.5234 1.5586-2.3438 1.9844-0.82422 0.41406-1.7344 0.625-2.7344 0.625-1.7617 0-3.1055-0.53906-4.0312-1.625-0.92969-1.082-1.3906-2.6602-1.3906-4.7344z"/>
  </symbol>
  <symbol id="n" overflow="visible">
   <path d="m2.5781-20.406h8.7344c2.5938 0 4.582 0.57812 5.9688 1.7344 1.3945 1.1484 2.0938 2.7891 2.0938 4.9219 0 2.1367-0.69922 3.7812-2.0938 4.9375-1.3867 1.1562-3.375 1.7344-5.9688 1.7344h-3.4844v7.0781h-5.25zm5.25 3.8125v5.7031h2.9219c1.0195 0 1.8047-0.25 2.3594-0.75 0.5625-0.5 0.84375-1.2031 0.84375-2.1094 0-0.91406-0.28125-1.6172-0.84375-2.1094-0.55469-0.48828-1.3398-0.73438-2.3594-0.73438z"/>
  </symbol>
  <symbol id="m" overflow="visible">
   <path d="m2.3594-15.312h4.8906v15.031c0 2.0508-0.49609 3.6172-1.4844 4.7031-0.98047 1.082-2.4062 1.625-4.2812 1.625h-2.4219v-3.2188h0.85938c0.92578 0 1.5625-0.21094 1.9062-0.625 0.35156-0.41797 0.53125-1.2461 0.53125-2.4844zm0-5.9688h4.8906v4h-4.8906z"/>
  </symbol>
  <symbol id="l" overflow="visible">
   <path d="m14.719-14.828v3.9844c-0.65625-0.45703-1.3242-0.79688-2-1.0156-0.66797-0.21875-1.3594-0.32812-2.0781-0.32812-1.3672 0-2.4336 0.40234-3.2031 1.2031-0.76172 0.79297-1.1406 1.9062-1.1406 3.3438 0 1.4297 0.37891 2.543 1.1406 3.3438 0.76953 0.79297 1.8359 1.1875 3.2031 1.1875 0.75781 0 1.4844-0.10938 2.1719-0.32812 0.6875-0.22656 1.3203-0.56641 1.9062-1.0156v4c-0.76172 0.28125-1.5391 0.48828-2.3281 0.625-0.78125 0.14453-1.5742 0.21875-2.375 0.21875-2.7617 0-4.9219-0.70703-6.4844-2.125-1.5547-1.4141-2.3281-3.3828-2.3281-5.9062 0-2.5312 0.77344-4.5039 2.3281-5.9219 1.5625-1.4141 3.7227-2.125 6.4844-2.125 0.80078 0 1.5938 0.074219 2.375 0.21875 0.78125 0.13672 1.5547 0.35156 2.3281 0.64062z"/>
  </symbol>
 </defs>
 <g>
  <path d="m320.98 57.27c-11.957 0-22.668 6.2539-28.582 16.324-1.5664-0.12891-3.0859-0.19531-4.5586-0.19531-27.137 0-51.156 18.188-58.805 43.871-14.84 4.0195-25.52 17.543-25.52 33.234v0.33203c-19.027 11.891-31.422 31.758-33.906 53.898h-29.133v-56.027h42.605v-42.113c11.055-3.0859 19.234-13.137 19.234-25.16 0-14.469-11.77-26.246-26.242-26.246-14.465 0-26.234 11.777-26.234 26.246 0 12.023 8.1797 22.074 19.234 25.16v28.113h-42.605v84.027h42.891c0.93359 11.742 4.6914 22.988 10.871 32.871h-26.219c-2.6836-11.648-13.074-20.379-25.523-20.379-14.465 0-26.234 11.777-26.234 26.246 0 14.465 11.77 26.23 26.234 26.23 11.609 0 21.371-7.6289 24.82-18.094h34.961c-6.3906 9.5195-9.8711 20.688-9.8711 32.285 0 0.0625 0.003906 0.11719 0.011718 0.17969h-32.691l-0.007812 72.926c-11.055 3.0898-19.234 13.148-19.234 25.176 0 14.465 11.77 26.23 26.234 26.23 14.465 0 26.242-11.766 26.242-26.23 0-12.027-8.1797-22.086-19.234-25.172v-58.934h20.535c2.7812 10.938 8.6523 20.965 17.059 28.688-3.3594 6.3516-5.1133 13.379-5.1133 20.648 0 16.703 9.1602 31.645 23.703 39.277 1.4688 26.176 23.223 47.02 49.758 47.02 3.2305 0 6.4453-0.3125 9.6094-0.93359 5.4375 6.1484 12.953 9.9727 21.145 10.742v14.066l-87.176-0.003906c-3.0898-11.055-13.145-19.234-25.168-19.234-14.465 0-26.234 11.777-26.234 26.246 0 14.465 11.77 26.23 26.234 26.23 12.027 0 22.094-8.1797 25.172-19.242h101.16v-29.844c5.0664-1.832 9.6367-4.8945 13.262-9.0156 5.2188 1.1367 10.227 1.3594 16.219 0.36328l5.8516-0.97266v-377.89l-2.2578-2.0781c-6.1992-5.7148-14.188-8.8711-22.5-8.8711zm-157.14 24.172c0-6.7539 5.4883-12.246 12.234-12.246s12.242 5.4922 12.242 12.246c0 6.7422-5.4883 12.23-12.242 12.23-6.7461 0-12.234-5.4883-12.234-12.23zm-35.352 188.26c-6.7461 0-12.234-5.4805-12.234-12.23 0-6.7539 5.4883-12.246 12.234-12.246 6.7461 0 12.242 5.4922 12.242 12.246-0.007813 6.7461-5.4961 12.23-12.242 12.23zm36.461 126.47c0 6.7422-5.4883 12.23-12.242 12.23-6.7461 0-12.234-5.4805-12.234-12.23 0-6.7539 5.4883-12.246 12.234-12.246 6.75 0.007812 12.242 5.4961 12.242 12.246zm19.117 94.629c-6.7461 0-12.234-5.4805-12.234-12.23 0-6.7539 5.4883-12.246 12.234-12.246 6.7461 0 12.242 5.4883 12.242 12.246 0 6.7461-5.4922 12.23-12.242 12.23zm-0.67187-272.07h89.75v-14h-89.496c2.582-18.531 13.809-34.91 30.594-43.953l0.26172-0.15234c0.29688-0.18359 30.195-17.504 58.25 6.4844l9.1016-10.641c-4.7773-4.082-9.6641-7.168-14.566-9.5586 5.4883-9.6836 18.691-26.281 44.984-26.488l-0.11328-14c-31.965 0.25391-50.508 20.57-58.289 35.676-13.195-3.0586-25.641-1.4727-35.141 1.5469 2.5586-7.0898 8.9258-12.461 16.824-13.434l4.9336-0.60938 1.0547-4.8594c4.6641-21.637 24.129-37.348 46.285-37.348 2.2969 0 4.7656 0.21875 7.5547 0.66797l5.6016 0.90234 2.0391-5.2969c2.9023-7.5312 9.9453-12.398 17.953-12.398 3.8359 0 7.5703 1.1797 10.758 3.3672v94.309h-30.516l-0.003906 82.66h-103.6c-8.0117-9.2539-13.012-20.699-14.219-32.875zm8.9961 79.152c0-11.156 4.2109-21.828 11.859-30.055l2.0703-2.2305h108.9v-82.656h16.516v100.18h-34.746v38.277h-16.844v-23.336h-87.742c0-0.0625-0.011719-0.12109-0.011719-0.18359zm91.566 137.21-2.8516-4.4805-5.0781 1.5352c-3.375 1.0195-6.8672 1.5352-10.371 1.5352-19.758 0-35.836-16.078-35.805-36.344l0.22266-5.8516-4.5977-1.8125c-11.711-4.6133-19.273-15.719-19.273-28.281 0-4.1562 0.92969-8.1719 2.5547-11.93 5.7227 3.5117 14.75 7.75 26.207 9.0781 0.91406 8.2305 4.2969 15.973 9.8945 22.301 7.1719 8.1016 17.07 12.93 27.875 13.59l0.85156-13.977c-7.0742-0.42578-13.547-3.5898-18.246-8.8945-3.2969-3.7227-5.3633-8.2227-6.1953-12.996 6.0312-0.67187 12.48-2.2109 19.32-5.0391l-5.3633-12.93c-22.203 9.207-39.379 1.707-47.234-3.1797l-5.2422-3.8242c-7.4492-5.4375-12.887-13.027-15.805-21.531h71.332v23.336h44.844v-38.277h20.746l0.003906 72.812h-35.332v73.344c-5.0742-0.86328-9.6133-3.7109-12.457-8.1836zm39.277-3.0391-5.2695-1.8203-2.957 4.7305c-1.2266 1.9609-2.8398 3.5117-4.5977 4.8477v-55.879h21.332v49.738c-2.8633-0.10547-5.7188-0.64844-8.5078-1.6172z"/>
  <path d="m571.51 283.7c14.469 0 26.242-11.766 26.242-26.23 0-14.469-11.77-26.246-26.242-26.246-12.449 0-22.844 8.7305-25.523 20.379h-26.219c6.1758-9.8789 9.9297-21.125 10.863-32.871h42.895v-84.027h-42.609v-28.105c11.059-3.0859 19.242-13.137 19.242-25.16 0-14.469-11.77-26.246-26.234-26.246-14.469 0-26.242 11.777-26.242 26.246 0 12.02 8.1758 22.07 19.234 25.16v42.113h42.609v56.02h-29.137c-2.4883-22.148-14.879-42.016-33.906-53.898v-0.33203c0-15.691-10.672-29.215-25.512-33.234-7.6484-25.68-31.672-43.871-58.812-43.871-1.4766 0-2.9922 0.066406-4.5586 0.19531-5.918-10.07-16.633-16.324-28.582-16.324-8.3047 0-16.297 3.1523-22.508 8.8633l-2.2578 2.082v377.88l5.8594 0.97266c5.9922 0.99609 11.004 0.77344 16.219-0.36328 3.625 4.1211 8.1914 7.1836 13.262 9.0156v29.844h101.16c3.0859 11.059 13.145 19.242 25.172 19.242 14.465 0 26.234-11.766 26.234-26.23 0-14.469-11.77-26.246-26.234-26.246-12.023 0-22.074 8.1797-25.168 19.234h-87.172v-14.066c8.1914-0.76562 15.719-4.5938 21.145-10.742 3.1641 0.61719 6.3828 0.93359 9.6094 0.93359 26.531 0 48.289-20.848 49.762-47.02 14.543-7.6289 23.699-22.562 23.699-39.273 0-7.2695-1.7539-14.297-5.1133-20.648 8.3984-7.7227 14.273-17.754 17.059-28.688h20.535v58.934c-11.059 3.0898-19.234 13.148-19.234 25.172 0 14.465 11.77 26.23 26.242 26.23 14.465 0 26.23-11.766 26.23-26.23 0-12.027-8.1758-22.094-19.234-25.176l-0.003906-72.922h-32.691c0-0.0625 0.011718-0.11719 0.011718-0.17969 0-11.594-3.4844-22.766-9.8789-32.285h34.961c3.4492 10.469 13.211 18.098 24.824 18.098zm0-38.473c6.7461 0 12.242 5.4922 12.242 12.246 0 6.7422-5.4883 12.23-12.242 12.23-6.7539 0-12.242-5.4805-12.242-12.23 0-6.7539 5.4961-12.246 12.242-12.246zm-59.824-163.79c0-6.7539 5.4883-12.246 12.242-12.246 6.7422 0 12.234 5.4922 12.234 12.246 0 6.7422-5.4883 12.23-12.234 12.23-6.75 0-12.242-5.4883-12.242-12.23zm4.2461 384.89c6.7422 0 12.234 5.4883 12.234 12.246 0 6.7422-5.4883 12.23-12.234 12.23-6.7461 0-12.242-5.4805-12.242-12.23s5.4922-12.246 12.242-12.246zm43.59-70.152c0 6.7422-5.4805 12.23-12.23 12.23-6.7461 0-12.242-5.4805-12.242-12.23 0-6.7539 5.4883-12.246 12.242-12.246 6.7461 0.007812 12.23 5.4961 12.23 12.246zm-180.5-324.91c8.0078 0 15.055 4.8672 17.949 12.398l2.0391 5.2969 5.6055-0.90234c2.7891-0.44922 5.2578-0.66797 7.5547-0.66797 22.152 0 41.621 15.707 46.289 37.348l1.0469 4.8594 4.9375 0.60938c7.8945 0.97266 14.262 6.3516 16.816 13.441-9.4961-3.0195-21.945-4.6016-35.133-1.5469-7.7891-15.109-26.324-35.426-58.289-35.676l-0.11328 14c26.461 0.20703 39.574 16.762 45.02 26.473-4.9102 2.3906-9.8125 5.4805-14.594 9.5742l9.1016 10.641c25.117-21.488 51.289-10.078 57.07-7.1172l1.4453 0.77734c16.781 9.043 28.012 25.426 30.594 43.953l-89.512 0.003906v14h89.754c-1.2031 12.176-6.2031 23.621-14.23 32.871h-103.6v-82.66h-30.512v-94.309c3.1914-2.1836 6.9258-3.3672 10.762-3.3672zm5.9648 363.7-2.9531-4.7266-5.2695 1.8203c-2.7891 0.96875-5.6445 1.5117-8.5078 1.6133l0.003906-49.734h21.336v55.883c-1.7656-1.3398-3.3828-2.9023-4.6094-4.8555zm104.39-101.37-5.2305 3.8203c-7.8516 4.8906-25.031 12.398-47.254 3.1875l-5.3594 12.93c6.8359 2.8398 13.293 4.3672 19.32 5.0391-0.82812 4.7812-2.8945 9.2734-6.1875 12.996-4.6992 5.3047-11.176 8.4688-18.25 8.8945l0.85156 13.977c10.809-0.66016 20.703-5.4805 27.883-13.59 5.6016-6.332 8.9805-14.074 9.8945-22.301 11.457-1.3281 20.48-5.5664 26.203-9.082 1.6289 3.7578 2.5586 7.7773 2.5586 11.934 0 12.562-7.5703 23.664-19.281 28.281l-4.6211 1.8242 0.28125 6.3516c0 19.758-16.078 35.836-35.836 35.836-3.5039 0-6.9961-0.51953-10.375-1.5352l-5.0781-1.5352-2.8516 4.4805c-2.8516 4.4805-7.3789 7.3203-12.453 8.1758v-73.344h-35.336v-72.809h20.746v38.277h44.844v-23.336h71.332c-2.9141 8.5-8.3516 16.094-15.801 21.527zm6.3672-65.762c7.6445 8.2227 11.855 18.898 11.855 30.055 0 0.0625-0.011718 0.11719-0.011718 0.17969h-87.742v23.336h-16.844v-38.277h-34.746v-100.18h16.516l-0.003907 82.664h108.9z"/>

 </g>
</svg>