<svg xmlns="http://www.w3.org/2000/svg" xmlns:xlink="http://www.w3.org/1999/xlink" width="970" height="688" viewBox="0 0 970 688">
  <defs>
    <clipPath id="clip-iPhone_14_Pro_1">
      <rect width="970" height="688"/>
    </clipPath>
  </defs>
  <g id="iPhone_14_Pro_1" data-name="iPhone 14 Pro – 1" clip-path="url(#clip-iPhone_14_Pro_1)">
    <g id="Group_2" data-name="Group 2" transform="translate(-475 -196)">
      <g id="brain-svgrepo-com_1_" data-name="brain-svgrepo-com (1)" transform="translate(1051.578 239.145)">
        <g id="Group_1" data-name="Group 1" transform="translate(0 42.855)">
          <path id="Path_1" data-name="Path 1" d="M74.452,109.449l-27.614-16.6L87.515,92.3V56.226L28.029,79.339,15.895,100.245l40.156,17.565H5.023C2.507,117.809,0,159.635,0,159.635H48.511Z" transform="translate(0 -47.096)" fill="#f2d952"/>
          <path id="Path_2" data-name="Path 2" d="M37.147,222.98H1.6L53.886,266.3l29.276-11.713Z" transform="translate(-0.508 -99.993)" fill="#5083d5"/>
          <path id="Path_3" data-name="Path 3" d="M305,243.96l19.248,9.208-27.6-3.348,10.038-25.928,60.219-4.177-25.1-42.66-46.85,34.287L250.63,197.963,206.3,223.891l-50.185-1.674L153.6,244.8l33.459,12.965-3.341,12.972-25.927-8.372L115.963,244.8l-16.731,9.2v28.439l25.932,17.565h80.3l15.053-33.454-17.142-21.431,48.093,2.192L230.037,267.7l24.78.942L286.6,256.517l22.468,19.343,49.679-.3,4.241-46.769-53.8,1.785Z" transform="translate(-31.478 -85.425)" fill="#d550d5"/>
          <path id="Path_4" data-name="Path 4" d="M219.167,375.683l45.286,47.263,25.1-11.7-38.6-43.086S225.02,375.683,219.167,375.683Z" transform="translate(-69.523 -146.045)" fill="#5083d5"/>
          <path id="Path_5" data-name="Path 5" d="M275.031,346.184l25.091,22.578,56.56-12.653V323.6H283.913Z" transform="translate(-87.244 -131.91)" fill="#ff9d00"/>
          <path id="Path_6" data-name="Path 6" d="M285.9,104.656l-1.882,37.473,14.24,5.307L320,114.81l2.5-62.177L280.67,45.879,249.3,93.2Z" transform="translate(-79.082 -43.814)" fill="#50d5ac"/>
          <path id="Path_7" data-name="Path 7" d="M356.5,142.044v22.583h23.424l41.81-35.133-41.81-44.322L368.215,96.259,369.88,124.9Z" transform="translate(-113.088 -56.279)" fill="#5083d5"/>
          <path id="Path_8" data-name="Path 8" d="M113.448,111.478l-7.634,14.638,11.078,8.368-3.552,12.538-20.909-7.1-14.639,25.92,34.4,24.681L137.6,180.54l9.5-29.337,9.746,4.19v9.2l51.86-3.348,8.363-23.417V111.917L176.916,99.343,190.3,80.328,206.611,54.6l-25.417-11.29-53.941-.451-.638,51.681L169.8,120.26l-12.964,5.856Z" transform="translate(-24.677 -42.855)" fill="#d59850"/>
        </g>
      </g>
      <text id="M" transform="translate(533 683)" fill="#d5507e" font-size="409" font-family="Chalkduster"><tspan x="0" y="0">M</tspan></text>
      <text id="Y" transform="translate(849 577)" fill="#d5507e" font-size="158" font-family="Chalkduster"><tspan x="0" y="0">Y</tspan></text>
      <text id="ental" transform="translate(877 677)" fill="#d5507e" font-size="158" font-family="Chalkduster"><tspan x="0" y="0">ental</tspan></text>
      <text id="Mental_Disorder_Detector_" data-name="Mental Disorder Detector " transform="translate(807 755)" fill="#b72b2b" font-size="45" font-family="Skia"><tspan x="0" y="0">Mental Disorder Detector </tspan></text>
    </g>
  </g>
</svg>
