<svg width="5.75rem" height="4.75rem"  version="1.1" viewBox="0 0 700 700" xmlns="http://www.w3.org/2000/svg" xmlns:xlink="http://www.w3.org/1999/xlink">
 <defs>
  <symbol id="t" overflow="visible">
   <path d="m18.766-1.125c-0.96875 0.5-1.9805 0.875-3.0312 1.125-1.043 0.25781-2.1367 0.39062-3.2812 0.39062-3.3984 0-6.0898-0.94531-8.0781-2.8438-1.9922-1.9062-2.9844-4.4844-2.9844-7.7344 0-3.2578 0.99219-5.8359 2.9844-7.7344 1.9883-1.9062 4.6797-2.8594 8.0781-2.8594 1.1445 0 2.2383 0.13281 3.2812 0.39062 1.0508 0.25 2.0625 0.625 3.0312 1.125v4.2188c-0.98047-0.65625-1.9453-1.1406-2.8906-1.4531-0.94922-0.3125-1.9492-0.46875-3-0.46875-1.875 0-3.3516 0.60547-4.4219 1.8125-1.0742 1.1992-1.6094 2.8555-1.6094 4.9688 0 2.1055 0.53516 3.7617 1.6094 4.9688 1.0703 1.1992 2.5469 1.7969 4.4219 1.7969 1.0508 0 2.0508-0.14844 3-0.45312 0.94531-0.3125 1.9102-0.80078 2.8906-1.4688z"/>
  </symbol>
  <symbol id="c" overflow="visible">
   <path d="m13.734-11.141c-0.4375-0.19531-0.87109-0.34375-1.2969-0.4375-0.41797-0.10156-0.83984-0.15625-1.2656-0.15625-1.2617 0-2.2305 0.40625-2.9062 1.2188-0.67969 0.80469-1.0156 1.9531-1.0156 3.4531v7.0625h-4.8906v-15.312h4.8906v2.5156c0.625-1 1.3438-1.7266 2.1562-2.1875 0.82031-0.46875 1.8008-0.70312 2.9375-0.70312 0.16406 0 0.34375 0.011719 0.53125 0.03125 0.19531 0.011719 0.47656 0.039062 0.84375 0.078125z"/>
  </symbol>
  <symbol id="a" overflow="visible">
   <path d="m17.641-7.7031v1.4062h-11.453c0.125 1.1484 0.53906 2.0078 1.25 2.5781 0.70703 0.57422 1.7031 0.85938 2.9844 0.85938 1.0312 0 2.082-0.14844 3.1562-0.45312 1.082-0.3125 2.1914-0.77344 3.3281-1.3906v3.7656c-1.1562 0.4375-2.3125 0.76562-3.4688 0.98438-1.1562 0.22656-2.3125 0.34375-3.4688 0.34375-2.7734 0-4.9297-0.70312-6.4688-2.1094-1.5312-1.4062-2.2969-3.3789-2.2969-5.9219 0-2.5 0.75391-4.4609 2.2656-5.8906 1.5078-1.4375 3.582-2.1562 6.2188-2.1562 2.4062 0 4.332 0.73047 5.7812 2.1875 1.4453 1.4492 2.1719 3.3828 2.1719 5.7969zm-5.0312-1.625c0-0.92578-0.27344-1.6719-0.8125-2.2344-0.54297-0.57031-1.25-0.85938-2.125-0.85938-0.94922 0-1.7188 0.26562-2.3125 0.79688s-0.96484 1.2969-1.1094 2.2969z"/>
  </symbol>
  <symbol id="l" overflow="visible">
   <path d="m9.2188-6.8906c-1.0234 0-1.793 0.17188-2.3125 0.51562-0.51172 0.34375-0.76562 0.85547-0.76562 1.5312 0 0.625 0.20703 1.1172 0.625 1.4688 0.41406 0.34375 0.98828 0.51562 1.7188 0.51562 0.92578 0 1.7031-0.32812 2.3281-0.98438 0.63281-0.66406 0.95312-1.4922 0.95312-2.4844v-0.5625zm7.4688-1.8438v8.7344h-4.9219v-2.2656c-0.65625 0.92969-1.3984 1.6055-2.2188 2.0312-0.82422 0.41406-1.8242 0.625-3 0.625-1.5859 0-2.8711-0.45703-3.8594-1.375-0.99219-0.92578-1.4844-2.1289-1.4844-3.6094 0-1.7891 0.61328-3.1016 1.8438-3.9375 1.2383-0.84375 3.1797-1.2656 5.8281-1.2656h2.8906v-0.39062c0-0.76953-0.30859-1.332-0.92188-1.6875-0.61719-0.36328-1.5703-0.54688-2.8594-0.54688-1.0547 0-2.0312 0.10547-2.9375 0.3125-0.89844 0.21094-1.7305 0.52344-2.5 0.9375v-3.7344c1.0391-0.25 2.0859-0.44141 3.1406-0.57812 1.0625-0.13281 2.125-0.20312 3.1875-0.20312 2.7578 0 4.75 0.54688 5.9688 1.6406 1.2266 1.0859 1.8438 2.8555 1.8438 5.3125z"/>
  </symbol>
  <symbol id="b" overflow="visible">
   <path d="m7.7031-19.656v4.3438h5.0469v3.5h-5.0469v6.5c0 0.71094 0.14062 1.1875 0.42188 1.4375s0.83594 0.375 1.6719 0.375h2.5156v3.5h-4.1875c-1.9375 0-3.3125-0.39844-4.125-1.2031-0.80469-0.8125-1.2031-2.1797-1.2031-4.1094v-6.5h-2.4219v-3.5h2.4219v-4.3438z"/>
  </symbol>
  <symbol id="k" overflow="visible">
   <path d="m12.766-13.078v-8.2031h4.9219v21.281h-4.9219v-2.2188c-0.66797 0.90625-1.4062 1.5703-2.2188 1.9844s-1.7578 0.625-2.8281 0.625c-1.8867 0-3.4336-0.75-4.6406-2.25-1.2109-1.5-1.8125-3.4258-1.8125-5.7812 0-2.3633 0.60156-4.2969 1.8125-5.7969 1.207-1.5 2.7539-2.25 4.6406-2.25 1.0625 0 2 0.21484 2.8125 0.64062 0.82031 0.42969 1.5664 1.0859 2.2344 1.9688zm-3.2188 9.9219c1.0391 0 1.8359-0.37891 2.3906-1.1406 0.55078-0.76953 0.82812-1.8828 0.82812-3.3438 0-1.457-0.27734-2.5664-0.82812-3.3281-0.55469-0.76953-1.3516-1.1562-2.3906-1.1562-1.043 0-1.8398 0.38672-2.3906 1.1562-0.55469 0.76172-0.82812 1.8711-0.82812 3.3281 0 1.4609 0.27344 2.5742 0.82812 3.3438 0.55078 0.76172 1.3477 1.1406 2.3906 1.1406z"/>
  </symbol>
  <symbol id="j" overflow="visible">
   <path d="m10.5-3.1562c1.0508 0 1.8516-0.37891 2.4062-1.1406 0.55078-0.76953 0.82812-1.8828 0.82812-3.3438 0-1.457-0.27734-2.5664-0.82812-3.3281-0.55469-0.76953-1.3555-1.1562-2.4062-1.1562-1.0547 0-1.8594 0.38672-2.4219 1.1562-0.55469 0.77344-0.82812 1.8828-0.82812 3.3281 0 1.4492 0.27344 2.5586 0.82812 3.3281 0.5625 0.77344 1.3672 1.1562 2.4219 1.1562zm-3.25-9.9219c0.67578-0.88281 1.4219-1.5391 2.2344-1.9688 0.82031-0.42578 1.7656-0.64062 2.8281-0.64062 1.8945 0 3.4453 0.75 4.6562 2.25 1.207 1.5 1.8125 3.4336 1.8125 5.7969 0 2.3555-0.60547 4.2812-1.8125 5.7812-1.2109 1.5-2.7617 2.25-4.6562 2.25-1.0625 0-2.0078-0.21094-2.8281-0.625-0.8125-0.42578-1.5586-1.0859-2.2344-1.9844v2.2188h-4.8906v-21.281h4.8906z"/>
  </symbol>
  <symbol id="i" overflow="visible">
   <path d="m0.34375-15.312h4.8906l4.125 10.391 3.5-10.391h4.8906l-6.4375 16.766c-0.64844 1.6953-1.4023 2.8828-2.2656 3.5625-0.86719 0.6875-2 1.0312-3.4062 1.0312h-2.8438v-3.2188h1.5312c0.83203 0 1.4375-0.13672 1.8125-0.40625 0.38281-0.26172 0.67969-0.73047 0.89062-1.4062l0.14062-0.42188z"/>
  </symbol>
  <symbol id="d" overflow="visible">
   <path d="m2.5781-20.406h8.7344c2.5938 0 4.582 0.57812 5.9688 1.7344 1.3945 1.1484 2.0938 2.7891 2.0938 4.9219 0 2.1367-0.69922 3.7812-2.0938 4.9375-1.3867 1.1562-3.375 1.7344-5.9688 1.7344h-3.4844v7.0781h-5.25zm5.25 3.8125v5.7031h2.9219c1.0195 0 1.8047-0.25 2.3594-0.75 0.5625-0.5 0.84375-1.2031 0.84375-2.1094 0-0.91406-0.28125-1.6172-0.84375-2.1094-0.55469-0.48828-1.3398-0.73438-2.3594-0.73438z"/>
  </symbol>
  <symbol id="h" overflow="visible">
   <path d="m2.3594-15.312h4.8906v15.312h-4.8906zm0-5.9688h4.8906v4h-4.8906z"/>
  </symbol>
  <symbol id="s" overflow="visible">
   <path d="m2.3594-21.281h4.8906v11.594l5.625-5.625h5.6875l-7.4688 7.0312 8.0625 8.2812h-5.9375l-5.9688-6.3906v6.3906h-4.8906z"/>
  </symbol>
  <symbol id="g" overflow="visible">
   <path d="m14.719-14.828v3.9844c-0.65625-0.45703-1.3242-0.79688-2-1.0156-0.66797-0.21875-1.3594-0.32812-2.0781-0.32812-1.3672 0-2.4336 0.40234-3.2031 1.2031-0.76172 0.79297-1.1406 1.9062-1.1406 3.3438 0 1.4297 0.37891 2.543 1.1406 3.3438 0.76953 0.79297 1.8359 1.1875 3.2031 1.1875 0.75781 0 1.4844-0.10938 2.1719-0.32812 0.6875-0.22656 1.3203-0.56641 1.9062-1.0156v4c-0.76172 0.28125-1.5391 0.48828-2.3281 0.625-0.78125 0.14453-1.5742 0.21875-2.375 0.21875-2.7617 0-4.9219-0.70703-6.4844-2.125-1.5547-1.4141-2.3281-3.3828-2.3281-5.9062 0-2.5312 0.77344-4.5039 2.3281-5.9219 1.5625-1.4141 3.7227-2.125 6.4844-2.125 0.80078 0 1.5938 0.074219 2.375 0.21875 0.78125 0.13672 1.5547 0.35156 2.3281 0.64062z"/>
  </symbol>
  <symbol id="f" overflow="visible">
   <path d="m2.1875-5.9688v-9.3438h4.9219v1.5312c0 0.83594-0.007813 1.875-0.015625 3.125-0.011719 1.25-0.015625 2.0859-0.015625 2.5 0 1.2422 0.03125 2.1328 0.09375 2.6719 0.070313 0.54297 0.17969 0.93359 0.32812 1.1719 0.20703 0.32422 0.47266 0.57422 0.79688 0.75 0.32031 0.16797 0.69141 0.25 1.1094 0.25 1.0195 0 1.8203-0.39062 2.4062-1.1719 0.58203-0.78125 0.875-1.8672 0.875-3.2656v-7.5625h4.8906v15.312h-4.8906v-2.2188c-0.74219 0.89844-1.5234 1.5586-2.3438 1.9844-0.82422 0.41406-1.7344 0.625-2.7344 0.625-1.7617 0-3.1055-0.53906-4.0312-1.625-0.92969-1.082-1.3906-2.6602-1.3906-4.7344z"/>
  </symbol>
  <symbol id="r" overflow="visible">
   <path d="m12.422-21.281v3.2188h-2.7031c-0.6875 0-1.1719 0.125-1.4531 0.375-0.27344 0.25-0.40625 0.6875-0.40625 1.3125v1.0625h4.1875v3.5h-4.1875v11.812h-4.8906v-11.812h-2.4375v-3.5h2.4375v-1.0625c0-1.6641 0.46094-2.8984 1.3906-3.7031 0.92578-0.80078 2.3672-1.2031 4.3281-1.2031z"/>
  </symbol>
  <symbol id="e" overflow="visible">
   <path d="m9.6406-12.188c-1.0859 0-1.9141 0.39062-2.4844 1.1719-0.57422 0.78125-0.85938 1.9062-0.85938 3.375s0.28516 2.5938 0.85938 3.375c0.57031 0.77344 1.3984 1.1562 2.4844 1.1562 1.0625 0 1.875-0.38281 2.4375-1.1562 0.57031-0.78125 0.85938-1.9062 0.85938-3.375s-0.28906-2.5938-0.85938-3.375c-0.5625-0.78125-1.375-1.1719-2.4375-1.1719zm0-3.5c2.6328 0 4.6914 0.71484 6.1719 2.1406 1.4766 1.418 2.2188 3.3867 2.2188 5.9062 0 2.5117-0.74219 4.4805-2.2188 5.9062-1.4805 1.418-3.5391 2.125-6.1719 2.125-2.6484 0-4.7148-0.70703-6.2031-2.125-1.4922-1.4258-2.2344-3.3945-2.2344-5.9062 0-2.5195 0.74219-4.4883 2.2344-5.9062 1.4883-1.4258 3.5547-2.1406 6.2031-2.1406z"/>
  </symbol>
  <symbol id="q" overflow="visible">
   <path d="m16.547-12.766c0.61328-0.94531 1.3477-1.6719 2.2031-2.1719 0.85156-0.5 1.7891-0.75 2.8125-0.75 1.7578 0 3.0977 0.54688 4.0156 1.6406 0.92578 1.0859 1.3906 2.6562 1.3906 4.7188v9.3281h-4.9219v-7.9844-0.35938c0.007813-0.13281 0.015625-0.32031 0.015625-0.5625 0-1.082-0.16406-1.8633-0.48438-2.3438-0.3125-0.48828-0.82422-0.73438-1.5312-0.73438-0.92969 0-1.6484 0.38672-2.1562 1.1562-0.51172 0.76172-0.77344 1.8672-0.78125 3.3125v7.5156h-4.9219v-7.9844c0-1.6953-0.14844-2.7852-0.4375-3.2656-0.29297-0.48828-0.8125-0.73438-1.5625-0.73438-0.9375 0-1.6641 0.38672-2.1719 1.1562-0.51172 0.76172-0.76562 1.8594-0.76562 3.2969v7.5312h-4.9219v-15.312h4.9219v2.2344c0.60156-0.86328 1.2891-1.5156 2.0625-1.9531 0.78125-0.4375 1.6406-0.65625 2.5781-0.65625 1.0625 0 2 0.25781 2.8125 0.76562 0.8125 0.51172 1.4258 1.2305 1.8438 2.1562z"/>
  </symbol>
  <symbol id="p" overflow="visible">
   <path d="m17.75-9.3281v9.3281h-4.9219v-7.1094c0-1.3438-0.03125-2.2656-0.09375-2.7656s-0.16797-0.86719-0.3125-1.1094c-0.1875-0.3125-0.44922-0.55469-0.78125-0.73438-0.32422-0.17578-0.69531-0.26562-1.1094-0.26562-1.0234 0-1.8242 0.39844-2.4062 1.1875-0.58594 0.78125-0.875 1.8711-0.875 3.2656v7.5312h-4.8906v-21.281h4.8906v8.2031c0.73828-0.88281 1.5195-1.5391 2.3438-1.9688 0.83203-0.42578 1.75-0.64062 2.75-0.64062 1.7695 0 3.1133 0.54688 4.0312 1.6406 0.91406 1.0859 1.375 2.6562 1.375 4.7188z"/>
  </symbol>
  <symbol id="o" overflow="visible">
   <path d="m2.5781-20.406h5.875l7.4219 14v-14h4.9844v20.406h-5.875l-7.4219-14v14h-4.9844z"/>
  </symbol>
  <symbol id="n" overflow="visible">
   <path d="m17.75-9.3281v9.3281h-4.9219v-7.1406c0-1.3203-0.03125-2.2344-0.09375-2.7344s-0.16797-0.86719-0.3125-1.1094c-0.1875-0.3125-0.44922-0.55469-0.78125-0.73438-0.32422-0.17578-0.69531-0.26562-1.1094-0.26562-1.0234 0-1.8242 0.39844-2.4062 1.1875-0.58594 0.78125-0.875 1.8711-0.875 3.2656v7.5312h-4.8906v-15.312h4.8906v2.2344c0.73828-0.88281 1.5195-1.5391 2.3438-1.9688 0.83203-0.42578 1.75-0.64062 2.75-0.64062 1.7695 0 3.1133 0.54688 4.0312 1.6406 0.91406 1.0859 1.375 2.6562 1.375 4.7188z"/>
  </symbol>
  <symbol id="m" overflow="visible">
   <path d="m2.3594-15.312h4.8906v15.031c0 2.0508-0.49609 3.6172-1.4844 4.7031-0.98047 1.082-2.4062 1.625-4.2812 1.625h-2.4219v-3.2188h0.85938c0.92578 0 1.5625-0.21094 1.9062-0.625 0.35156-0.41797 0.53125-1.2461 0.53125-2.4844zm0-5.9688h4.8906v4h-4.8906z"/>
  </symbol>
 </defs>
 <g>
  <path d="m132.24 269.18 0.089843-0.09375c2.4453-4.2344 8.4727-5.8359 12.801-3.3945 0.26172 0.16406 0.49219 0.36328 0.73438 0.54297 1.7539 1.3008 3.0117 3.0586 3.5938 5.1953 0.65625 2.4453 0.375 4.8906-0.85156 7.0625 0 0.089844 0 0.089844-0.089844 0.089844-1.6953 2.9219-4.8008 4.7031-8.0938 4.7031-1.3945 0-2.7227-0.26953-3.9375-0.83594-0.25781-0.11719-0.51953-0.23437-0.76562-0.38672-4.5156-2.6289-6.0195-8.3633-3.4805-12.883zm443.25 40.086c0 1.8867-0.09375 3.7695-0.28516 5.9375-2.543 21.645-18.82 39.43-39.711 43.199-13.926 2.5352-29.461-1.793-40.562-11.961-8.3281 6.2539-17.684 10.734-27.48 13.379 1.625 5.8789 2.1953 12.27 1.1992 18.898 9.4062 5.918 17.434 15.113 17.434 32.91 0 22.473-16.277 41.41-37.918 46.059-1.7305 11.277-11.504 19.941-23.258 19.941h-14.117c0 15.566-12.668 28.234-28.23 28.234-15.566 0-28.234-12.668-28.234-28.234h-23.527c-10.129 0-18.793-6.4453-22.098-15.438-9.4297-1.0039-29.617-2.3867-47.824-3.3984h-0.027343c-26.062 0.011719-47.684-21.156-47.684-47.164 0-14.723 7.168-28.516 19.078-37.387-0.48828-4.8086-0.23047-9.4414 0.72266-13.961-5.3086-1.5664-10.512-3.6055-15.566-6.1211-13.363 8.8438-29.734 11.672-45.168 8.5625-24.098-5.0781-43.199-25.316-47.527-50.355 0-0.18359-0.09375-0.46875-0.09375-0.65625-0.37891-2.4531 0.19141-4.9883 1.6953-6.9648 1.4102-2.0703 3.5781-3.3867 6.1133-3.8633 0.26172-0.039062 0.51953-0.015625 0.78516-0.039062 4.793-0.30078 9.2344 3.0312 10.035 7.8516v0.28516 0.27344c2.918 17.227 16.379 31.711 32.848 35.012 2.9102 0.55859 5.8281 0.94141 8.6562 0.94141 9.5039-0.09375 18.441-3.293 25.879-9.4141 2.918-2.4414 7.3398-2.8242 10.633-0.84375 5.9688 3.4258 12.176 6.0156 18.574 7.7383 2.1328-3.6289 4.6992-7.0742 7.8125-10.188 7.7344-7.7344 17.367-12.402 27.406-14.094 0.050781-0.011719 0.09375-0.023438 0.14453-0.035156 1.0859-0.19141 2.1719-0.33984 3.2578-0.46094 0.18359-0.023438 0.37109-0.027344 0.55859-0.042969 1.3008-0.11719 2.6055-0.17188 3.9102-0.19141 1.0938-0.023437 2.1797 0.015625 3.2695 0.066406 0.11719 0.003907 0.24219 0.011719 0.36328 0.023438 3.5273 0.19531 7.0273 0.76562 10.496 1.7344 0.125 0.035156 0.24609 0.066406 0.37109 0.10156 0.44141 0.125 0.88672 0.20703 1.3203 0.34766 9.625-13.215 24.852-21.141 41.473-21.141 12.738 0 29.641 6.2617 41.055 14.461 7.293-6.8281 17.23-9.9922 26.527-7.7852 8.2617 1.9492 16.961 8.6445 20.352 21.676 7.5391-0.53125 15.512 1.9609 22.617 7.3984 2.8438 2.1797 5.5664 4.8906 8.0117 8.0195 11.312-2.2891 21.836-7.7891 30.496-16.102 1.9766-1.875 4.6094-2.8242 7.3398-2.5352 2.7266 0.28516 5.1758 1.6914 6.7773 3.8594 5.8359 7.9023 14.398 12.516 23.715 12.516 1.7852 0 3.4844-0.19141 5.1758-0.47656 12.332-2.0664 22.773-13.547 24.191-26.621 0.09375-1.5078 0.19141-2.8281 0.19141-3.9609 0-17.121-13.367-31.238-29.742-31.238-2.0703 0-4.1367 0.27344-6.4023 0.75-2.6328 0.65625-5.3633 0.09375-7.5273-1.5078-2.168-1.5078-3.5781-3.8594-3.9531-6.5859-1.6445-14.59-8.1406-28.016-17.824-38.277-0.25781 0.29688-0.47656 0.62891-0.74609 0.90625-5.5273 5.8906-13.277 9.0039-22.406 9.0039-16.664 0-40.512-11.082-48.074-26.992-5.5508-11.652-12.152-18.621-14.727-20.027l-111.27 0.007813c-2.5703 1.4102-9.168 8.3906-14.738 20.066-7.5938 15.91-31.426 26.992-48.066 26.992-9.1328 0-16.879-3.1133-22.41-9.0039-5.4375-5.7969-8.6016-13.996-9.4688-24.426-9.6484 11.738-16.133 26.246-18.234 42-0.56641 3.8516-3.293 6.8672-6.9648 7.9023-0.75 0.18359-1.5977 0.37891-2.3516 0.65625-4.5742 1.4102-9.5156-0.90625-11.453-5.125-0.13281-0.29688-0.29688-0.57812-0.40234-0.89453-1.3164-3.8594 0.089844-8.0977 3.3828-10.449 4.6719-25.09 18.594-47.266 38.246-62.121 3.6562-23.742 11.145-67.613 18.555-92.773 5.9805-20.289 23.828-33.938 44.414-33.945l56.734-0.011719c0.054687-0.003906 0.10547-0.015625 0.16406-0.015625h65.871c0.023437 0 0.042968 0.003907 0.066406 0.003907l47.363-0.003907c20.586 0 38.445 13.637 44.426 33.93 10.465 35.488 20.637 105.04 20.887 109 0.39844 6.2734 0.14453 11.922-0.72266 16.973 13.281 11.637 22.875 27.492 26.879 45.164h0.75c26.832 0.085937 48.57 22.57 48.57 50.051zm-94.992-97.055c0.61719-2.8906 0.92578-6.2891 0.87891-10.125-0.011718-1.2148-0.054687-2.4648-0.14062-3.7617-0.42969-4.7891-10.543-72.301-20.16-104.91-3.6055-12.227-14.207-20.441-26.375-20.441l-40.086 0.003906-7.6289 30.504c-1.0469 4.1953-4.8086 7.1328-9.1289 7.1328h-47.051c-4.3242 0-8.0859-2.9414-9.1328-7.1328l-0.14063-0.57031-2.5039-10-4.9766-19.918-49.543 0.011719c-12.168 0.011718-22.766 8.2266-26.363 20.441-3.5391 12.02-7.1328 28.727-10.289 45.297-2.8711 15.074-5.375 30.012-7.1445 41.203-0.73828 4.6758-1.3477 8.707-1.8047 11.809-0.51562 3.5547-0.83594 5.918-0.89453 6.6406-0.65625 10.434 0.93359 18.305 4.4844 22.086 1.2383 1.3164 3.4844 3.0703 8.6914 3.0703 11.324 0 27.305-8.3594 31.078-16.273 2.4453-5.1367 15.461-30.777 30.891-30.777h112.93c12 0 24.148 16.57 30.902 30.762 3.7617 7.9023 19.734 16.258 31.086 16.258 4.8281 0 7.1016-1.5 8.3906-2.7773 0.10156-0.10156 0.20703-0.19531 0.29297-0.29297 1.7148-1.8438 2.9688-4.6523 3.7383-8.2344zm-105.28-139.25h-41.77l0.003906 0.015624 4.6992 18.805h32.355l4.7031-18.809zm73.383 289.62c-1.2812-3.5938-3.2266-6.832-5.5312-9.4961-1.1719-1.3438-2.418-2.5547-3.7422-3.5664-2.4023-1.8359-8.5586-5.7188-13.914-2.1523-2.8828 1.9219-6.5977 2.082-9.6484 0.44141-0.97266-0.51953-1.8203-1.2148-2.5352-2.0117-1.5234-1.7031-2.4258-3.9219-2.4258-6.2773 0-8.7539-2.7383-14.621-7.3242-15.707-3.3828-0.84375-8.3398 0.99609-11.496 5.7891v16.277c0 3.9883-2.4805 7.3711-5.9805 8.7422-1.0625 0.42187-2.2188 0.66797-3.4336 0.66797-0.59375 0-1.1641-0.074218-1.7266-0.17188-4.3672-0.8125-7.6875-4.6328-7.6875-9.2344v-15.07c-7.3008-6.6367-23.156-13.164-32.938-13.164-9.6133 0-18.469 4.25-24.602 11.402 1.3203 1.082 2.6094 2.2344 3.8398 3.4727 1.4375 1.4375 2.2969 3.2266 2.6094 5.0898 0.48828 2.9023-0.37109 5.9805-2.6055 8.2227-0.24219 0.24219-0.51562 0.42188-0.77734 0.63281-3.6953 2.9844-9.1016 2.8008-12.539-0.63281-0.22266-0.23047-0.46875-0.42188-0.69922-0.63281-2.5312-2.3867-5.3555-4.2656-8.3555-5.668-0.64453-0.30078-1.2891-0.59766-1.9492-0.85156-0.40234-0.15625-0.8125-0.28516-1.2227-0.42578-0.29297-0.10156-0.57812-0.17969-0.86719-0.26953-0.37891-0.125-0.75781-0.25391-1.1367-0.35156-0.56641-0.15234-1.1406-0.29687-1.7148-0.41406-0.4375-0.09375-0.87891-0.16797-1.3164-0.24609-0.72266-0.125-1.4453-0.24219-2.1797-0.3125-0.22266-0.023437-0.44141-0.023437-0.66016-0.039062-1.7422-0.13281-3.4883-0.13281-5.2266 0.011718-0.79687 0.078126-1.5898 0.17188-2.3867 0.3125-5.3828 0.94141-10.742 3.8594-15.445 8.293-1.0586 0.99609-2.0938 2.0508-3.0742 3.1992-1.8438 2.1562-3.3359 4.207-4.5547 6.1641-0.94531 1.5352-1.7188 3.0117-2.3398 4.4414-0.47656 1.5625-0.8125 3.1523-1.043 4.7617-1.4062 9.6562 1.5625 19.824 8.9727 27.238 3.6719 3.6797 3.6719 9.6328 0 13.305-1.8359 1.8359-4.2461 2.7539-6.6523 2.7539s-4.8164-0.91797-6.6523-2.7539c-3.375-3.375-6.1328-7.1289-8.3555-11.105-4.6016 5.0742-7.3008 11.562-7.3008 18.402 0 15.641 13.195 28.359 29.406 28.359 63.5 3.4961 64.703 3.7539 64.703 14.117 0 2.5938 2.1094 4.7031 4.7031 4.7031h32.938c5.1953 0 9.4062 4.2109 9.4062 9.4141v9.4062c0 5.1914 4.2227 9.4141 9.4141 9.4141 5.1875 0 9.4062-4.2227 9.4062-9.4141v-9.4062c0-5.2031 4.2109-9.4141 9.4141-9.4141h23.527c2.5977 0 4.7031-2.1094 4.7031-4.7031 0-0.44922-0.10547-0.95312-0.32031-1.5391-1.0352-2.8672-0.60937-6.0664 1.1367-8.5664 1.7422-2.5078 4.5977-4.0039 7.6445-4.0312 16.09-0.125 29.18-12.836 29.18-28.332 0-7.4258-1.6523-11.766-6.6211-15.547-2.5977 3.125-6.1055 6.6133-10.578 9.5078-1.5781 1.0312-3.3555 1.5195-5.1016 1.5195-3.0859 0-6.1094-1.5195-7.9062-4.2891-2.8281-4.3672-1.5781-10.191 2.7812-13.016 5.1562-3.3359 8.3398-8.3281 9.2773-9.9297 1.8438-6.0312 1.3906-12.051-0.49609-17.32zm-75.445 11.512c-0.60938 0-1.125-0.085938-1.668-0.15234-6.0664-0.72656-7.6094-5.293-7.7383-9.2617 0-0.027343-0.003906-0.0625-0.003906-0.089843-0.003906-0.28516-0.066406-0.54688-0.09375-0.82422-0.46875-4.7617-4.4414-8.4961-9.3203-8.4961-3.2422 0-6.0977 1.6406-7.7852 4.1328-1.0234 1.5078-1.625 3.3203-1.625 5.2812 0 1.3281 0.11328 2.7344 0.32422 4.1758 1.625 10.898 9.6133 24.059 27.906 24.059 5.1953 0 9.4141-4.2109 9.4141-9.4141 0.003907-5.2031-4.2109-9.4102-9.4102-9.4102zm32.441 48.051c-8.8438-4.4258-7.0352-11.723-5.1641-15.68 2.2695-4.6406 0.37891-10.238-4.2461-12.555-4.6602-2.3086-10.305-0.42969-12.629 4.2109-5.4727 10.949-6.3633 30.871 13.621 40.859 1.3477 0.67188 2.7891 0.99219 4.1992 0.99219 3.457 0 6.7773-1.8984 8.4297-5.2031 2.3242-4.6523 0.4375-10.309-4.2109-12.625zm-84.699-39.633c4.6484-2.3242 6.5352-7.9727 4.2109-12.629-2.3242-4.6484-7.9688-6.5117-12.629-4.207-8.8359 4.418-13.602-1.4062-15.641-5.2734-0.57812-1.125-1.3555-2.082-2.2617-2.8555-2.7891-2.3789-6.8281-3.0078-10.328-1.2773-2.4453 1.2227-4.0977 3.375-4.8047 5.8086-0.63281 2.1953-0.50391 4.6133 0.59766 6.8203 4.0781 8.1523 13.648 17.254 26.523 17.254 4.4141-0.011719 9.2266-1.0859 14.332-3.6406zm18.828 11.395c-4.6523-2.3086-10.305-0.42969-12.629 4.2109-4.418 8.832-11.711 7.0391-15.688 5.1641-4.6328-2.2773-10.242-0.37891-12.551 4.2461-2.3242 4.6523-0.44141 10.305 4.207 12.629 3.9766 1.9883 9.1328 3.3711 14.57 3.3711 9.5312 0 19.926-4.2617 26.293-16.992 2.3242-4.6523 0.44531-10.305-4.2031-12.629zm104-273.9-9.4062 0.003906v-9.4023c0-5.2031-4.2109-9.4141-9.4141-9.4141-5.1953 0-9.4062 4.2188-9.4062 9.4141v9.4062l-9.4062 0.003906c-5.1953 0-9.4062 4.2188-9.4062 9.4141 0 0.23437 0.050781 0.46484 0.074219 0.69531 0.36328 4.8672 4.3867 8.7148 9.3398 8.7148l9.4062-0.003906v9.4023c0 0.41016 0.074219 0.79688 0.11719 1.1914 0.59375 4.6328 4.5039 8.2148 9.2891 8.2148 2.6328 0 5.0078-1.0859 6.7148-2.8281 1.6641-1.6953 2.6953-4.0156 2.6953-6.5781v-9.4102h9.4102c5.1953 0 9.4062-4.2188 9.4062-9.4062 0-5.207-4.2148-9.418-9.4141-9.418zm-136.35-1.7812c1.1914-2.4805 1.1797-5.1875 0.25391-7.543-0.83594-2.1172-2.3984-3.9531-4.582-5.0664-4.7031-2.2617-10.355-0.28516-12.605 4.3281-0.41406 0.85547-0.64453 1.7539-0.78906 2.6484-0.64453 4.0078 1.2695 8.1133 5.1172 9.957 1.3164 0.66016 2.7266 0.94531 4.1367 0.94531 3.4805 0.003906 6.7695-1.9727 8.4688-5.2695zm-33.879-16.559c0.64453-1.3164 0.91406-2.7109 0.91797-4.0898 0.003906-3.4609-1.8867-6.8086-5.2461-8.4297-4.6094-2.3516-10.254-0.375-12.516 4.3281-2.0703 4.0586-0.78516 8.9141 2.7656 11.562 0.48047 0.35938 1.0039 0.68359 1.5625 0.95703 1.3164 0.66016 2.7266 0.93359 4.0469 0.93359 3.4766 0 6.8672-1.875 8.4688-5.2617zm3.0117 22.488c-4.6094-2.3516-10.258-0.375-12.516 4.3281-2.3516 4.6133-0.375 10.266 4.2344 12.516 1.3164 0.66016 2.7266 0.94531 4.1445 0.94531 3.4766 0 6.8711-1.8867 8.4727-5.2734 2.25-4.6016 0.36719-10.258-4.3359-12.516zm33.875 16.469c-4.7031-2.25-10.348-0.375-12.609 4.3281-2.2578 4.7031-0.375 10.359 4.3281 12.617 1.3164 0.65625 2.7266 0.94141 4.1367 0.94141 3.3867 0 6.7773-1.9766 8.3789-5.2695 2.3555-4.7031 0.37891-10.266-4.2344-12.617zm86.301 111.14c0-5.1758-4.2383-9.4141-9.4141-9.4141-5.1797 0-9.4062 4.2383-9.4062 9.4141s4.2344 9.4062 9.4062 9.4062c5.1758 0.007813 9.4141-4.2344 9.4141-9.4062zm-84.695 9.4141c5.1758 0 9.4062-4.2344 9.4062-9.4062 0-5.1758-4.2344-9.4141-9.4062-9.4141-5.1797 0-9.4141 4.2383-9.4141 9.4141 0 5.1719 4.2344 9.4062 9.4141 9.4062zm47.051-9.4141c0-5.1758-4.2383-9.4141-9.4062-9.4141-5.1797 0-9.4141 4.2383-9.4141 9.4141s4.2344 9.4062 9.4141 9.4062c5.168 0.007813 9.4062-4.2344 9.4062-9.4062z"/>

 </g>
</svg>
